# File created by Blade
# Date/Time:  Fri Jan 16 17:52:57 2015
#---------------------------------------------------------
:version 1.10
:name HOM
:units
  mass 1.0
  length 1.000000
  angle deg
:documentation
     Acclaim Skeleton File
:root
   axis xyz
   order TX TY TZ RX RY RZ
   position 0.000000 0.000000 0.000000
   orientation 0 0 0
:bonedata
   begin
      id 1
      name Spine_dum
      direction 0.000000 1.000000 0.000000
      length 7.170412
      axis 0.0 0.0 0.0 xyz
   end
   begin
      id 2
      name LeftUpLeg_dum
      direction 1.000000 0.000000 0.000000
      length 4.318350
      axis 0.0 0.0 0.0 xyz
   end
   begin
      id 3
      name RightUpLeg_dum
      direction -1.000000 0.000000 0.000000
      length 4.318350
      axis 0.0 0.0 0.0 xyz
   end
   begin
      id 4
      name Spine
      direction 0.000000 1.000000 0.000000
      length 0.000000
      axis 0.0 0.0 0.0 xyz
      dof rx ry rz
   end
   begin
      id 5
      name Spine_dum1
      direction 0.000000 1.000000 0.000000
      length 14.276153
      axis 0.0 0.0 0.0 xyz
   end
   begin
      id 6
      name Spine_dum2
      direction 0.000000 1.000000 0.000000
      length 10.718243
      axis 0.0 0.0 0.0 xyz
   end
   begin
      id 7
      name Spine_dum3
      direction 0.000000 1.000000 0.000000
      length 10.718243
      axis 0.0 0.0 0.0 xyz
   end
   begin
      id 8
      name Head
      direction 0.000000 1.000000 0.000000
      length 4.527550
      axis 0.0 0.0 0.0 xyz
      dof rx ry rz
   end
   begin
      id 9
      name LeftShoulder
      direction 1.000000 0.000000 0.000000
      length 7.058872
      axis 0.0 0.0 -90.0 xyz
      dof rx ry rz
   end
   begin
      id 10
      name LeftArm
      direction 1.000000 0.000000 0.000000
      length 10.955525
      axis 0.0 0.0 -90.0 xyz
      dof rx ry rz
   end
   begin
      id 11
      name LeftForeArm
      direction 1.000000 0.000000 0.000000
      length 8.193716
      axis 0.0 0.0 -90.0 xyz
      dof ry rz rx
   end
   begin
      id 12
      name LeftHand
      direction 0.000000 0.000000 0.000000
      length 0.000000
      axis 0.0 0.0 -90.0 xyz
      dof rx ry rz
   end
   begin
      id 13
      name LeftHand_dum1
      direction 0.000000 0.000000 0.000000
      length 0.000000
      axis 0.0 0.0 -90.0 xyz
   end
   begin
      id 14
      name LeftHand_dum2
      direction 1.000000 0.000000 0.000000
      length 3.937000
      axis 0.0 0.0 -90.0 xyz
   end
   begin
      id 15
      name LeftHandThumb1
      direction 0.000000 0.000000 1.000000
      length 3.937000
      axis 0.0 0.0 -90.0 xyz
      dof rx rz ry
   end
   begin
      id 16
      name RightShoulder
      direction -1.000000 0.000000 0.000000
      length 7.058872
      axis 0.0 0.0 90.0 xyz
      dof rx ry rz
   end
   begin
      id 17
      name RightArm
      direction -1.000000 0.000000 0.000000
      length 10.955525
      axis 0.0 0.0 90.0 xyz
      dof rx ry rz
   end
   begin
      id 18
      name RightForeArm
      direction -1.000000 0.000000 0.000000
      length 8.193716
      axis 0.0 0.0 90.0 xyz
      dof ry rz rx
   end
   begin
      id 19
      name RightHand
      direction 0.000000 0.000000 0.000000
      length 0.000000
      axis 0.0 0.0 90.0 xyz
      dof rx ry rz
   end
   begin
      id 20
      name RightHand_dum1
      direction 0.000000 0.000000 0.000000
      length 0.000000
      axis 0.0 0.0 90.0 xyz
   end
   begin
      id 21
      name RightHand_dum2
      direction -1.000000 0.000000 0.000000
      length 3.937000
      axis 0.0 0.0 90.0 xyz
   end
   begin
      id 22
      name RightHandThumb1
      direction 0.000000 0.000000 1.000000
      length 3.937000
      axis 0.0 0.0 90.0 xyz
      dof rx rz ry
   end
   begin
      id 23
      name LeftUpLeg
      direction 0.000000 -1.000000 0.000000
      length 17.323638
      axis 0.0 0.0 0.0 xyz
      dof rx ry rz
   end
   begin
      id 24
      name LeftLeg
      direction 0.000000 -1.000000 0.000000
      length 16.270368
      axis 0.0 0.0 0.0 xyz
      dof rx ry rz
   end
   begin
      id 25
      name LeftFoot
      direction 0.000000 -0.258819 0.965926
      length 4.922846
      axis 15.0 0.0 0.0 xyz
      dof rx ry rz
   end
   begin
      id 26
      name LeftToeBase
      direction 0.000000 0.000000 1.000000
      length 2.952750
      axis 0.0 0.0 0.0 xyz
      dof rx ry rz
   end
   begin
      id 27
      name RightUpLeg
      direction 0.000000 -1.000000 0.000000
      length 17.323638
      axis 0.0 0.0 0.0 xyz
      dof rx ry rz
   end
   begin
      id 28
      name RightLeg
      direction 0.000000 -1.000000 0.000000
      length 16.270368
      axis 0.0 0.0 0.0 xyz
      dof rx ry rz
   end
   begin
      id 29
      name RightFoot
      direction 0.000000 -0.258819 0.965926
      length 4.922846
      axis 15.0 0.0 0.0 xyz
      dof rx ry rz
   end
   begin
      id 30
      name RightToeBase
      direction 0.000000 0.000000 1.000000
      length 2.952750
      axis 0.0 0.0 0.0 xyz
      dof rx ry rz
   end
:hierarchy
   begin
      root Spine_dum LeftUpLeg_dum RightUpLeg_dum
      Spine_dum Spine
      LeftUpLeg_dum LeftUpLeg
      RightUpLeg_dum RightUpLeg
      Spine Spine_dum1 Spine_dum2 Spine_dum3
      Spine_dum1 Head
      Spine_dum2 LeftShoulder
      Spine_dum3 RightShoulder
      LeftShoulder LeftArm
      LeftArm LeftForeArm
      LeftForeArm LeftHand
      LeftHand LeftHand_dum1 LeftHand_dum2
      LeftHand_dum1 LeftHandThumb1
      RightShoulder RightArm
      RightArm RightForeArm
      RightForeArm RightHand
      RightHand RightHand_dum1 RightHand_dum2
      RightHand_dum1 RightHandThumb1
      LeftUpLeg LeftLeg
      LeftLeg LeftFoot
      LeftFoot LeftToeBase
      RightUpLeg RightLeg
      RightLeg RightFoot
      RightFoot RightToeBase
   end

# File created by Blade
# Date/Time:  Fri Jan 16 17:53:05 2015
# Frame Rate: 120.000 fps
#------------------------------------------------------
:FULLY-SPECIFIED
:DEGREES
1593
root -2.584400 35.425547 -11.357701 -5.074786 11.012972 -10.760852
Spine -0.042549 -12.905128 11.700197
Head 6.741616 -3.257481 -5.200026
LeftShoulder -21.602467 14.968893 -8.706130
LeftArm 26.265664 -17.294095 -67.137457
LeftForeArm 2.947942 0.000000 123.495649
LeftHand 2.744370 -0.000000 13.908259
LeftHandThumb1 -26.253704 0.000000 33.147579
RightShoulder -5.701953 -7.332501 -1.215299
RightArm -0.548924 -20.762443 74.781030
RightForeArm -13.677755 -0.000000 17.395957
RightHand 0.246628 0.000000 -0.335433
RightHandThumb1 -24.326973 -0.000000 -32.862282
LeftUpLeg 11.197002 -4.657916 -1.620892
LeftLeg -6.694923 -0.000000 0.000000
LeftFoot -14.274826 27.327127 -4.077817
LeftToeBase 18.577211 -0.000000 -0.000000
RightUpLeg 1.069555 12.032092 10.330030
RightLeg 9.469965 -0.000000 -0.000000
RightFoot -6.735216 -24.274528 5.444758
RightToeBase -4.922473 -0.000000 0.000000
1594
root -2.565939 35.426858 -11.369723 -5.023841 11.073339 -10.755620
Spine -0.077227 -12.964422 11.690128
Head 6.778465 -3.246301 -5.191475
LeftShoulder -21.570050 14.918690 -8.600809
LeftArm 26.261205 -17.280151 -67.443990
LeftForeArm 3.066952 -0.000000 123.402003
LeftHand 2.718052 -0.000000 13.919010
LeftHandThumb1 -26.253704 0.000000 33.147579
RightShoulder -5.696782 -7.353399 -1.217716
RightArm -0.574667 -20.837344 74.824722
RightForeArm -13.694375 -0.000000 17.427148
RightHand 0.225269 -0.000000 -0.556251
RightHandThumb1 -24.326973 -0.000000 -32.862282
LeftUpLeg 11.100454 -4.603532 -1.628818
LeftLeg -6.651944 -0.000000 0.000000
LeftFoot -14.280703 27.198484 -4.125745
LeftToeBase 18.619794 -0.000000 -0.000000
RightUpLeg 0.934192 12.461002 10.236064
RightLeg 9.829895 -0.000000 -0.000000
RightFoot -6.974553 -24.019079 5.473170
RightToeBase -5.538674 -0.000000 0.000000
1595
root -2.549155 35.428234 -11.379201 -4.997330 11.137213 -10.744404
Spine -0.076459 -13.014906 11.648997
Head 6.803653 -3.259762 -5.150308
LeftShoulder -21.531210 14.840017 -8.532906
LeftArm 26.287490 -17.279563 -67.622572
LeftForeArm 3.236829 -0.000000 123.305870
LeftHand 2.666839 -0.000000 13.896328
LeftHandThumb1 -26.253704 0.000000 33.147579
RightShoulder -5.706252 -7.315903 -1.220228
RightArm -0.659064 -20.878767 74.913692
RightForeArm -13.660190 -0.000000 17.418682
RightHand 0.239596 -0.000000 -0.739317
RightHandThumb1 -24.326973 -0.000000 -32.862282
LeftUpLeg 11.048813 -4.552648 -1.641373
LeftLeg -6.632061 -0.000000 0.000000
LeftFoot -14.287402 27.033047 -4.237474
LeftToeBase 18.560647 -0.000000 -0.000000
RightUpLeg 0.783725 13.035823 10.144039
RightLeg 10.332307 -0.000000 -0.000000
RightFoot -7.312917 -23.820628 5.514543
RightToeBase -6.119133 -0.000000 0.000000
1596
root -2.534267 35.430325 -11.389976 -4.960447 11.251626 -10.727361
Spine -0.094496 -13.088556 11.590205
Head 6.830735 -3.304006 -5.111409
LeftShoulder -21.448876 14.780022 -8.431806
LeftArm 26.296478 -17.254620 -67.816516
LeftForeArm 3.317444 0.000000 123.179502
LeftHand 2.746416 0.000000 14.063093
LeftHandThumb1 -26.253704 0.000000 33.147579
RightShoulder -5.734340 -7.292275 -1.209271
RightArm -0.756167 -20.677392 75.019333
RightForeArm -13.840019 -0.000000 17.438837
RightHand 0.229241 -0.000000 -0.262744
RightHandThumb1 -24.326973 -0.000000 -32.862282
LeftUpLeg 10.969832 -4.542649 -1.655519
LeftLeg -6.591348 -0.000000 0.000000
LeftFoot -14.286870 26.847339 -4.344342
LeftToeBase 18.531535 -0.000000 -0.000000
RightUpLeg 0.603179 13.600433 10.036802
RightLeg 10.886372 -0.000000 -0.000000
RightFoot -7.644359 -23.633754 5.467255
RightToeBase -6.585883 -0.000000 0.000000
1597
root -2.518629 35.432038 -11.401493 -4.932882 11.368512 -10.715526
Spine -0.097029 -13.174633 11.533847
Head 6.855942 -3.359064 -5.067014
LeftShoulder -21.370181 14.718717 -8.334165
LeftArm 26.333848 -17.304231 -68.051350
LeftForeArm 3.664398 -0.000000 123.037955
LeftHand 2.759784 -0.000000 13.761658
LeftHandThumb1 -26.253704 0.000000 33.147579
RightShoulder -5.793659 -7.383196 -1.163646
RightArm -0.665002 -20.749304 75.013673
RightForeArm -13.741421 -0.000000 17.420046
RightHand 0.270549 -0.000000 -0.568467
RightHandThumb1 -24.326973 -0.000000 -32.862282
LeftUpLeg 10.864748 -4.451983 -1.658181
LeftLeg -6.488893 -0.000000 0.000000
LeftFoot -14.338267 26.607414 -4.427345
LeftToeBase 18.584137 -0.000000 -0.000000
RightUpLeg 0.392190 14.233731 9.923815
RightLeg 11.576337 -0.000000 -0.000000
RightFoot -8.035629 -23.431747 5.417803
RightToeBase -6.903559 -0.000000 0.000000
1598
root -2.503495 35.433260 -11.408574 -4.974557 11.493873 -10.689506
Spine -0.012420 -13.293854 11.429760
Head 6.880701 -3.405628 -5.016966
LeftShoulder -21.312477 14.646024 -8.230706
LeftArm 26.407207 -17.290261 -68.268750
LeftForeArm 3.661786 -0.000000 122.898185
LeftHand 2.852325 -0.000000 14.120184
LeftHandThumb1 -26.253704 0.000000 33.147579
RightShoulder -5.798158 -7.381565 -1.132595
RightArm -0.706395 -20.695696 75.085534
RightForeArm -13.754268 -0.000000 17.423796
RightHand 0.225841 -0.000000 -0.475579
RightHandThumb1 -24.326973 -0.000000 -32.862282
LeftUpLeg 10.883178 -4.448926 -1.690593
LeftLeg -6.465541 -0.000000 0.000000
LeftFoot -14.344614 26.416036 -4.526963
LeftToeBase 18.555141 -0.000000 -0.000000
RightUpLeg 0.242333 14.983994 9.815850
RightLeg 12.359992 -0.000000 -0.000000
RightFoot -8.543501 -23.287247 5.491402
RightToeBase -7.236221 -0.000000 0.000000
1599
root -2.486471 35.434108 -11.418105 -4.986466 11.626522 -10.655294
Spine 0.038426 -13.408867 11.322535
Head 6.914235 -3.474596 -4.953318
LeftShoulder -21.240031 14.582215 -8.116979
LeftArm 26.477081 -17.293289 -68.510497
LeftForeArm 3.934764 -0.000000 122.757143
LeftHand 2.988685 0.000000 13.771489
LeftHandThumb1 -26.253704 0.000000 33.147579
RightShoulder -5.800974 -7.344400 -1.087012
RightArm -0.796477 -20.643673 75.140950
RightForeArm -13.742840 -0.000000 17.436056
RightHand 0.279355 -0.000000 -0.676890
RightHandThumb1 -24.326973 -0.000000 -32.862282
LeftUpLeg 10.870282 -4.466966 -1.737064
LeftLeg -6.452163 -0.000000 0.000000
LeftFoot -14.365262 26.254469 -4.696031
LeftToeBase 18.565502 -0.000000 -0.000000
RightUpLeg 0.028253 15.733494 9.683147
RightLeg 13.251653 -0.000000 -0.000000
RightFoot -9.025387 -23.221696 5.493688
RightToeBase -7.478700 -0.000000 0.000000
